# xmcd
#
# Track frame offsets: 
#        150
#        17567
#        27282
#        34560
#        47250
#        64112
#        79479
#        97667
#        119065
#        135197
#        153887
#        171067
#        187675
#        205327
#        222522
#        243227
#        264150
#        280315
#        294607
#        307070
#        319280
#
# Disc length: 4369 seconds
#
# Revision: 0
# Processed by: cddbd v1.5.2PL0 Copyright (c) Steve Scherf et al.
# Submitted via: ExactAudioCopy v0.99pb1
#
DISCID=1d110f15
DTITLE=Vladimir Misik - Sin slavy 1
DYEAR=2000
DGENRE=Blues
TTITLE0=Malej zvon co mam
TTITLE1=Old Mother Hubbard
TTITLE2=Zahod city
TTITLE3=Summertime
TTITLE4=I've Got My Mojo Working
TTITLE5=Slunecny hrob
TTITLE6=Ram pristich obrazu
TTITLE7=Ja a dym
TTITLE8=Kure v hodinkach
TTITLE9=Cesta do detstvi
TTITLE10=Strihali dohola maleho chlapecka
TTITLE11=Jednohubky
TTITLE12=Proc ta ruze uvada
TTITLE13=Obelisk
TTITLE14=Ty II
TTITLE15=Sladke je zit
TTITLE16=Variace na renesancni tema
TTITLE17=Sochy
TTITLE18=Trinactej plat
TTITLE19=Vino, zeny, zpev
TTITLE20=Helou, hejsa, hura
EXTD=
EXTT0=
EXTT1=
EXTT2=
EXTT3=
EXTT4=
EXTT5=
EXTT6=
EXTT7=
EXTT8=
EXTT9=
EXTT10=
EXTT11=
EXTT12=
EXTT13=
EXTT14=
EXTT15=
EXTT16=
EXTT17=
EXTT18=
EXTT19=
EXTT20=
PLAYORDER=
